<svg clip-rule="evenodd" fill-rule="evenodd" stroke-linejoin="round" stroke-miterlimit="2" viewBox="0 0 560 400" xmlns="http://www.w3.org/2000/svg"><path d="m56.74 18.14c-1.1-2.39-1.67-3.63-2.44-5.49-.71 1.86-.95 2.43-2.29 5.63l-2.62 6.44h10.31zm-10.31 14.55-3.68 8.12h-10.75l18.72-39.43h9.07l18.71 39.43h-10.59l-4-8.12zm58.85-14.22c2.19 0 3.1-.14 4-.62 1.43-.825 2.321-2.349 2.34-4-.027-1.649-.916-3.169-2.34-4-.86-.48-1.77-.58-4-.58h-13.13v9.12zm-13.13 22.34h-9.88v-39.43h25.73c4.58 0 7.06.58 9.4 2 3.018 1.914 4.842 5.257 4.82 8.83 0 4.68-2.43 8.16-6.87 10 3.91 1.39 5.11 3.58 5.2 9.74.19 4.92.48 6.35 1.67 8.88h-10.88c-.72-2.2-.86-3.1-.76-6.88 0-5.72-1.58-7.49-6.64-7.49h-11.79zm76.27 0v-39.43h36.08v8h-26.2v7.4h23.15v8h-23.15v8.12h26.2v8zm64.72 0h-9.88v-31.46h-13.65v-8h37.13v8h-13.6zm62-15.42c-2.82 11.22-10.5 16.85-23.24 16.85-14.51 0-23.68-8.07-23.68-20.76 0-13 9.45-21.48 23.91-21.48 6.93 0 12.37 1.81 16.66 5.68 2.916 2.426 4.948 5.749 5.78 9.45h-10.65c-2-5-5.91-7.45-11.83-7.45-7.93 0-13.41 5.59-13.41 13.61 0 7.82 5.44 13.27 13.22 13.27 6.3 0 10.07-2.82 12.36-9.17zm35.18-24.01v15.37h-20.32v-15.37h-9.88v39.43h9.88v-16.09h20.29v16.09h9.87v-39.43zm-330.32 39.43v-39.43h34.6v8h-24.72v7.4h22.67v8h-22.67v16.03zm128.71 0v-39.43h34.61v8h-24.73v7.4h22.72v8h-22.72v16.03z" fill-rule="nonzero" transform="matrix(1.4699 0 0 1.4678 30 169)"/></svg>